<svg width="43" height="43" viewBox="0 0 43 43" fill="none" xmlns="http://www.w3.org/2000/svg">
<circle cx="21.5" cy="21.5" r="21.5" fill="#F29F05" fill-opacity="0.2"/>
<path d="M25 28H17V29.5C17 29.8978 16.842 30.2794 16.5607 30.5607C16.2794 30.842 15.8978 31 15.5 31H14.5C14.1022 31 13.7206 30.842 13.4393 30.5607C13.158 30.2794 13 29.8978 13 29.5V27.83C12.4149 27.623 11.9084 27.2397 11.5502 26.7329C11.1921 26.226 10.9998 25.6206 11 25V22C11 21.38 11.188 20.804 11.51 20.326L12.596 13.526C12.7088 12.8212 13.0692 12.1797 13.6124 11.7167C14.1557 11.2537 14.8462 10.9996 15.56 11H26.44C27.1532 11.0006 27.8429 11.2553 28.3854 11.7184C28.9278 12.1815 29.2875 12.8227 29.4 13.527L30.483 20.317C30.809 20.797 30.999 21.377 30.999 22V25C30.9992 25.6206 30.8069 26.226 30.4488 26.7329C30.0906 27.2397 29.5841 27.623 28.999 27.83V29.5C28.999 29.8978 28.841 30.2794 28.5597 30.5607C28.2784 30.842 27.8968 31 27.499 31H26.499C26.1012 31 25.7196 30.842 25.4383 30.5607C25.157 30.2794 24.999 29.8978 24.999 29.5V28H25ZM28.25 19.01L27.426 13.842C27.3885 13.6074 27.2686 13.3938 27.088 13.2395C26.9073 13.0853 26.6776 13.0003 26.44 13H15.559C15.3211 12.9999 15.0909 13.0846 14.9098 13.2389C14.7287 13.3932 14.6086 13.6071 14.571 13.842L13.746 19.011C13.8305 19.0038 13.9152 19.0001 14 19H28C28.084 19 28.168 19.003 28.25 19.01ZM26.5 25C26.697 25 26.892 24.9612 27.074 24.8858C27.256 24.8104 27.4214 24.6999 27.5607 24.5607C27.6999 24.4214 27.8104 24.256 27.8858 24.074C27.9612 23.892 28 23.697 28 23.5C28 23.303 27.9612 23.108 27.8858 22.926C27.8104 22.744 27.6999 22.5786 27.5607 22.4393C27.4214 22.3001 27.256 22.1896 27.074 22.1142C26.892 22.0388 26.697 22 26.5 22C26.1022 22 25.7206 22.158 25.4393 22.4393C25.158 22.7206 25 23.1022 25 23.5C25 23.8978 25.158 24.2794 25.4393 24.5607C25.7206 24.842 26.1022 25 26.5 25ZM15.5 25C15.697 25 15.892 24.9612 16.074 24.8858C16.256 24.8104 16.4214 24.6999 16.5607 24.5607C16.6999 24.4214 16.8104 24.256 16.8858 24.074C16.9612 23.892 17 23.697 17 23.5C17 23.303 16.9612 23.108 16.8858 22.926C16.8104 22.744 16.6999 22.5786 16.5607 22.4393C16.4214 22.3001 16.256 22.1896 16.074 22.1142C15.892 22.0388 15.697 22 15.5 22C15.1022 22 14.7206 22.158 14.4393 22.4393C14.158 22.7206 14 23.1022 14 23.5C14 23.8978 14.158 24.2794 14.4393 24.5607C14.7206 24.842 15.1022 25 15.5 25ZM16.204 14.094C16.4692 14.094 16.7236 14.1994 16.9111 14.3869C17.0986 14.5744 17.204 14.8288 17.204 15.094V17.094C17.204 17.3592 17.0986 17.6136 16.9111 17.8011C16.7236 17.9886 16.4692 18.094 16.204 18.094C15.9388 18.094 15.6844 17.9886 15.4969 17.8011C15.3094 17.6136 15.204 17.3592 15.204 17.094V15.094C15.204 14.8288 15.3094 14.5744 15.4969 14.3869C15.6844 14.1994 15.9388 14.094 16.204 14.094Z" fill="#F29F05"/>
</svg>
