<svg width="43" height="43" viewBox="0 0 43 43" fill="none" xmlns="http://www.w3.org/2000/svg">
<path d="M31 15C31 13.346 29.654 12 28 12H14C12.346 12 11 13.346 11 15V17.831C11 18.884 11.382 19.841 12 20.577V29C12 30.103 12.897 31 14 31H28C29.103 31 30 30.103 30 29V20.576C30.618 19.841 31 18.884 31 17.83V15ZM29 15V17.831C29 18.971 28.151 19.943 27.109 19.998L27 20C25.897 20 25 19.103 25 18V14H28C28.552 14 29 14.449 29 15ZM19 14H23V18C23 19.103 22.103 20 21 20C19.897 20 19 19.103 19 18V14ZM13 15C13 14.449 13.448 14 14 14H17V18C17 19.103 16.103 20 15 20L14.891 19.997C13.849 19.943 13 18.971 13 17.831V15ZM19 29V26H23V29H19ZM25 29V26C25 24.897 24.103 24 23 24H19C17.897 24 17 24.897 17 26V29H14V21.869C14.254 21.936 14.517 21.98 14.787 21.994C15.3899 22.0267 15.9923 21.9221 16.5489 21.6881C17.1055 21.4541 17.6017 21.0967 18 20.643C18.733 21.475 19.807 22 21 22C22.193 22 23.267 21.475 24 20.643C24.3983 21.0967 24.8945 21.4541 25.4511 21.6881C26.0077 21.9221 26.6101 22.0267 27.213 21.994C27.484 21.98 27.746 21.936 28 21.869V29H25Z" fill="#F28705"/>
<circle cx="21.5" cy="21.5" r="21.5" fill="#F29F05" fill-opacity="0.2"/>
</svg>
